<svg id="full-logo" viewBox="0 0 832 214" width='50vw' style={{maxWidth:'900px'}}>
<linearGradient id="grad1" x1="0%" y1="0%" x2="0%" y2="100%">
	<stop offset="0%" style={{stopColor:'rgb(255,255,0)',stopOpacity:1}} />
	<stop offset="100%" style={{stopColor:'rgb(255,0,0)',stopOpacity:1}} />
</linearGradient>
<polygon fill="url(#grad1)" id="bars" points="815,65.2 815,20 183,20 183,64.5 183,65.2 183,109.7 183,154.8 183,200 653.2,200 653.2,154.8
	727.5,154.8 727.5,109.7 574.4,109.7 574.4,65.2 "/>
<g id="icon">
	<g>
		<polygon className="st0" points="188.2,20.8 83.5,20.8 31.5,111.2 83.5,201.6 188.2,201.6 240.2,111.2 		"/>
	</g>
	<g>
		<path className="st1" d="M73.5,103.3c0-17.8,0.6-36.1,0.6-53.9c0-6.1,1.7-7.8,7.8-7.2c10.6,0.6,21.1,0.6,31.1,0c4.4,0,6.1,1.1,6.1,6.1
			c0,29.5,0,58.9,0,88.4c0,22.2,0,44.5-0.6,66.7c-9.4,0-19.4,0-28.9,0.6c-3.3,0-5-1.1-6.1-3.9c-2.8-5.6-6.1-11.1-9.4-16.7
			c0-14.4,0.6-28.9,0.6-42.8C74.1,127.7,74.7,115.5,73.5,103.3z"/>
		<path className="st2" d="M160.8,137c0-10.9,0.5-22.4,0-33.4c0-3.8,1.1-4.9,4.9-4.9c11.5,0,23,0,33.9,0c3.8,0,5.5,0.5,5.5,4.9
			c-0.5,3.8,0,7.7,0,10.9c-1.1,20.3-0.5,40.5,0,61.3c-4.4,7.7-8.8,15.3-13.1,23c-1.6,2.7-3.3,3.8-6,3.8c-8.2-0.5-16.4,0-24.6-0.5
			C160.8,180.8,160.8,158.9,160.8,137z"/>
		<path className="st3" d="M160.3,135.4c0,22,0,44.1,0,66.1c-14.9,0-29.2,0-44.1,0c0-22,0-44.1,0.6-66.1
			C131.1,135.4,145.4,135.4,160.3,135.4z"/>
		<path className="st4" d="M73.2,103.1c1.1,12,0.5,24.1,0.5,36.7c0,14.2,0,28.5-0.5,42.1c-13.1-22.4-26.3-44.9-38.9-67.3
			c-2.7-4.9,1.1-11.5,6.6-11.5C51.9,103.1,62.3,103.1,73.2,103.1z"/>
		<path className="st5" d="M204.6,174.7c-0.5-20.3-1.1-40.5,0-61.3c11.5,0,22.4,0,35.6,0C228.1,134.7,216.6,155,204.6,174.7z"/>
	</g>
	<path className="st6" d="M190.7,14.9H80.4l-55.1,95.5L80.4,206h110.3l55.1-95.5L190.7,14.9z M86.8,25.2h95.2l-40.2,85.3H37.3L86.8,25.2
		z M40.9,116.3h100.7l39.4,79.4H86.9L40.9,116.3z M185.9,193.3l-39.4-79.9l40-84.8l47.6,82.1L185.9,193.3z"/>
</g>
<g id="text-logo">
	<g>
		<g>
			<path d="M279.2,121.8v12.9h-17.9V74.1c0-1.7,0.8-2.6,2.5-2.6h52c5.9,0,10.2,1.3,12.8,4c2.6,2.6,3.9,6.4,3.9,11.2v5.6
				c0,2.5-0.5,4.6-1.6,6.2c-1,1.6-2.2,2.8-3.6,3.7c1.9,0.9,3.4,2.3,4.6,4.1c1.2,1.8,1.8,4,1.8,6.7v5.6c0,5.3-1.3,9.4-3.8,12.2
				c-2.5,2.8-6.9,4.2-13,4.2h-32.2l-5-12.9H279.2z M280.7,85.6c-1,0-1.5,0.5-1.5,1.5v10.7h30.1c2,0,3.4-0.4,4.2-1.1
				c0.8-0.8,1.2-2.1,1.2-3.9v-1.9c0-1.9-0.4-3.3-1.2-4c-0.8-0.8-2.2-1.2-4.2-1.2H280.7z M279.2,108v11.9h31.1c1.6,0,2.7-0.4,3.4-1.1
				c0.7-0.8,1.1-2.1,1.1-3.9v-1.8c0-1.9-0.3-3.2-1-3.9c-0.7-0.8-1.8-1.1-3.5-1.1H279.2z"/>
			<path d="M340.1,79.6V67h15.7v12.6H340.1z M340.1,134.8V87.1h15.7v47.7H340.1z"/>
			<path d="M425.1,115.8c0,2.9-0.3,5.5-1,7.8c-0.7,2.3-1.8,4.3-3.4,6c-1.6,1.7-3.6,2.9-6.1,3.8c-2.5,0.9-5.5,1.3-9,1.3h-22.9
				c-3.5,0-6.5-0.4-9-1.3c-2.5-0.9-4.5-2.2-6-3.8c-1.6-1.7-2.7-3.6-3.4-6c-0.7-2.3-1-4.9-1-7.8V106c0-2.8,0.3-5.4,1-7.8
				c0.7-2.3,1.8-4.3,3.4-6c1.6-1.7,3.6-2.9,6-3.8c2.5-0.9,5.5-1.3,9-1.3h22.9c3.5,0,6.5,0.4,9,1.3c2.5,0.9,4.5,2.2,6.1,3.8
				c1.6,1.7,2.7,3.6,3.4,6c0.7,2.3,1,4.9,1,7.8V115.8z M402.7,120.8c2.5,0,4.2-0.5,5.2-1.5c1-1,1.5-2.8,1.5-5.6v-6.7
				c0-2.9-0.5-4.9-1.5-5.9c-1-1-2.7-1.6-5.2-1.6h-17.1c-2.5,0-4.2,0.5-5.2,1.6c-1,1.1-1.4,3-1.4,5.9v6.7c0,2.7,0.5,4.6,1.4,5.6
				c1,1,2.7,1.5,5.2,1.5H402.7z"/>
			<path d="M471.5,87.3v47.4h-17.9V87.3h-26.2l-5.8-15.1v-0.7h83.9c1.7,0,2.5,0.9,2.5,2.6v16.4l-16.6,6.2h-0.7v-8.4c0-0.6-0.3-1-1-1
				H471.5z"/>
			<path d="M513.7,67h15.7v20.1h23.2c3.5,0,6.5,0.4,9,1.3c2.5,0.9,4.5,2.2,6,3.8c1.5,1.7,2.7,3.6,3.3,6c0.7,2.3,1,4.9,1,7.8v28.8
				h-15.7v-27.7c0-2.8-0.6-4.7-1.7-5.8c-1.1-1.1-2.8-1.7-5-1.7h-17l-2.6-7h-0.6v42.1h-15.7V67z"/>
			<path d="M579.8,79.6V67h15.7v12.6H579.8z M579.8,134.8V87.1h15.7v47.7H579.8z"/>
			<path d="M603.6,87.1h38.9c3.5,0,6.5,0.4,9,1.3c2.5,0.9,4.5,2.2,6,3.8c1.5,1.7,2.7,3.6,3.3,6c0.7,2.3,1,4.9,1,7.8v28.8h-15.7
				v-27.7c0-2.8-0.5-4.7-1.6-5.8c-1-1.1-2.8-1.7-5.1-1.7h-17l-2.6-7h-0.6v42.1h-15.7V87.1z"/>
			<path d="M670.9,141h34.5c2.3,0,3.8-0.5,4.7-1.5c0.9-1,1.3-2.6,1.3-4.8v-3.8h-23.2c-7.1,0-12.2-1.4-15.1-4.3
				c-3-2.9-4.4-7.2-4.4-13.1V106c0-2.9,0.3-5.5,1-7.8c0.7-2.3,1.8-4.3,3.4-6c1.6-1.7,3.6-2.9,6-3.8c2.5-0.9,5.5-1.3,9.1-1.3h34.7
				c2.9,0,4.3,1.4,4.3,4.3v44.3c0,2.8-0.3,5.3-1,7.6c-0.7,2.3-1.8,4.2-3.3,5.9c-1.5,1.6-3.5,2.9-6,3.8c-2.5,0.9-5.6,1.3-9.2,1.3
				h-36.9V141z M710.8,129.1h0.6v-28.1c0-1-0.5-1.5-1.5-1.5h-18.8c-2.4,0-4.2,0.5-5.2,1.6c-1,1.1-1.6,3-1.6,5.8v4.4
				c0,2.6,0.5,4.4,1.5,5.3c1,1,2.8,1.4,5.3,1.4h15.4L710.8,129.1z"/>
			<path d="M734.6,121.4h39c0.9,0,1.6-0.2,1.9-0.6c0.3-0.4,0.5-1,0.5-1.9v-1c0-0.6-0.1-1.1-0.3-1.4c-0.2-0.3-0.7-0.5-1.4-0.6
				l-29.6-2.5c-3.6-0.3-6.3-1.4-8.1-3.4c-1.7-2-2.6-4.6-2.6-7.9v-3.8c0-3.5,1-6.2,2.9-8.2c1.9-2,5-3,9.4-3h43c1.4,0,2.2,0.7,2.2,2.2
				v10.7l-13.6,5h-0.6v-5.5c0-0.5-0.2-0.7-0.6-0.7h-24.9c-0.9,0-1.5,0.2-1.8,0.5c-0.3,0.3-0.5,0.9-0.5,1.7v1.3
				c0,0.8,0.1,1.3,0.4,1.6c0.3,0.2,0.7,0.4,1.4,0.5l30.3,3c2,0.2,3.7,0.6,5,1.1c1.3,0.6,2.4,1.3,3.2,2.3c0.8,1,1.4,2.1,1.7,3.5
				c0.3,1.4,0.5,3,0.5,4.9v3.6c0,3.8-1,6.8-3,8.9c-2,2.1-5.5,3.1-10.6,3.1h-43.8V121.4z"/>
		</g>
		<g>
			<path className="st6" d="M255.3,140.8V74.1c0-5.1,3.5-8.6,8.5-8.6h52c7.5,0,13.3,1.9,17,5.7c3.7,3.8,5.6,9,5.6,15.4v5.6
				c0,3.7-0.8,6.8-2.5,9.4c0.3,0.4,0.6,0.8,0.9,1.3c1.9,2.8,2.9,6.2,2.9,10.1v5.6c0,6.8-1.8,12.3-5.3,16.2
				c-3.7,4.1-9.6,6.1-17.4,6.1H255.3z M308.7,91.8v-0.2h-23.5v0.2H308.7z"/>
			<rect x="334.1" y="61" className="st6" width="27.7" height="79.8"/>
			<path className="st6" d="M382.6,140.8c-4.2,0-7.9-0.6-11.1-1.7c-3.3-1.2-6.1-3-8.3-5.3c-2.2-2.3-3.8-5.1-4.8-8.4
				c-0.9-2.9-1.3-6.1-1.3-9.5V106c0-3.4,0.4-6.6,1.3-9.5c1-3.2,2.6-6.1,4.8-8.4c2.2-2.3,5-4.1,8.3-5.3c3.1-1.1,6.8-1.7,11-1.7h22.9
				c4.2,0,7.9,0.6,11.1,1.7c3.4,1.2,6.2,3,8.4,5.3c2.2,2.3,3.8,5.2,4.8,8.4c0.9,2.9,1.3,6.1,1.3,9.5v9.8c0,3.5-0.4,6.7-1.3,9.5
				c-1,3.2-2.6,6-4.8,8.4c-2.2,2.3-5,4.1-8.4,5.3c-3.1,1.1-6.9,1.7-11.1,1.7H382.6z M385,114.8c0.2,0,0.4,0,0.6,0h17.1
				c0.2,0,0.5,0,0.7,0c0-0.3,0-0.6,0-1v-6.7c0-0.6,0-1.1-0.1-1.5c-0.2,0-0.4,0-0.6,0h-17.1c-0.2,0-0.4,0-0.5,0
				c0,0.4-0.1,0.8-0.1,1.5v6.7C385,114.2,385,114.5,385,114.8z"/>
			<path className="st6" d="M447.6,140.8V93.3h-24.4l-7.7-20v-7.8h89.9c5,0,8.5,3.5,8.5,8.6v20.6l-21.5,8h-7.8v-9.4h-7.1v47.4H447.6z"/>
			<path className="st6" d="M550.3,140.8v-33.7c0-0.7,0-1.1-0.1-1.4c-0.2,0-0.3,0-0.6,0h-14.2v35.2h-27.7V61h27.7v20.1h17.2
				c4.2,0,7.9,0.6,11.1,1.7c3.4,1.2,6.2,3,8.4,5.4c2.2,2.3,3.7,5.1,4.7,8.3c0.9,2.9,1.3,6.1,1.3,9.5v34.8H550.3z"/>
			<rect x="573.8" y="61" className="st6" width="27.7" height="79.8"/>
			<path className="st6" d="M640.3,140.8v-33.7c0-0.6,0-1.1-0.1-1.5c-0.2,0-0.4,0-0.6,0h-14.2v35.2h-27.7V81.1h44.9
				c4.2,0,7.9,0.6,11.1,1.7c3.4,1.2,6.2,3,8.4,5.4c2.2,2.3,3.7,5.1,4.7,8.3c0.9,2.9,1.3,6.1,1.3,9.5v34.8H640.3z"/>
			<path className="st6" d="M664.9,160.3V135h10.9c-2.7-1-5-2.4-6.9-4.2c-4.1-4-6.3-9.9-6.3-17.4V106c0-3.5,0.4-6.7,1.3-9.5
				c1-3.2,2.6-6,4.8-8.4c2.2-2.3,5-4.1,8.3-5.3c3.2-1.2,6.8-1.7,11.1-1.7h34.7c6.2,0,10.3,4.2,10.3,10.3v44.3c0,3.3-0.4,6.5-1.2,9.3
				c-0.9,3.2-2.5,6-4.6,8.3c-2.2,2.3-5,4.1-8.4,5.3c-3.1,1.1-6.9,1.7-11.3,1.7H664.9z M690.4,112.2c0.2,0,0.5,0,0.8,0h14.2v-6.6
				h-14.2c-0.3,0-0.5,0-0.7,0c0,0.3-0.1,0.8-0.1,1.4v4.4C690.4,111.7,690.4,111.9,690.4,112.2z"/>
			<path className="st6" d="M728.6,140.8v-25.4h4.9c-0.5-0.4-1-0.9-1.4-1.4c-2.7-3.1-4.1-7.1-4.1-11.9v-3.8c0-5.1,1.5-9.2,4.5-12.4
				c3.1-3.2,7.7-4.8,13.7-4.8h43c4.7,0,8.2,3.4,8.2,8.2v14.9l-4.2,1.6c0.4,0.4,0.9,0.8,1.2,1.3c1.4,1.7,2.4,3.7,3,6.1
				c0.4,1.8,0.6,3.9,0.6,6.2v3.6c0,5.4-1.6,9.8-4.7,13c-3.2,3.3-8.1,5-15,5H728.6z"/>
		</g>
		<g>
			<path className="st7" d="M279.2,121.8v12.9h-17.9V74.1c0-1.7,0.8-2.6,2.5-2.6h52c5.9,0,10.2,1.3,12.8,4c2.6,2.6,3.9,6.4,3.9,11.2v5.6
				c0,2.5-0.5,4.6-1.6,6.2c-1,1.6-2.2,2.8-3.6,3.7c1.9,0.9,3.4,2.3,4.6,4.1c1.2,1.8,1.8,4,1.8,6.7v5.6c0,5.3-1.3,9.4-3.8,12.2
				c-2.5,2.8-6.9,4.2-13,4.2h-32.2l-5-12.9H279.2z M280.7,85.6c-1,0-1.5,0.5-1.5,1.5v10.7h30.1c2,0,3.4-0.4,4.2-1.1
				c0.8-0.8,1.2-2.1,1.2-3.9v-1.9c0-1.9-0.4-3.3-1.2-4c-0.8-0.8-2.2-1.2-4.2-1.2H280.7z M279.2,108v11.9h31.1c1.6,0,2.7-0.4,3.4-1.1
				c0.7-0.8,1.1-2.1,1.1-3.9v-1.8c0-1.9-0.3-3.2-1-3.9c-0.7-0.8-1.8-1.1-3.5-1.1H279.2z"/>
			<path className="st7" d="M340.1,79.6V67h15.7v12.6H340.1z M340.1,134.8V87.1h15.7v47.7H340.1z"/>
			<path className="st7" d="M425.1,115.8c0,2.9-0.3,5.5-1,7.8c-0.7,2.3-1.8,4.3-3.4,6c-1.6,1.7-3.6,2.9-6.1,3.8c-2.5,0.9-5.5,1.3-9,1.3
				h-22.9c-3.5,0-6.5-0.4-9-1.3c-2.5-0.9-4.5-2.2-6-3.8c-1.6-1.7-2.7-3.6-3.4-6c-0.7-2.3-1-4.9-1-7.8V106c0-2.8,0.3-5.4,1-7.8
				c0.7-2.3,1.8-4.3,3.4-6c1.6-1.7,3.6-2.9,6-3.8c2.5-0.9,5.5-1.3,9-1.3h22.9c3.5,0,6.5,0.4,9,1.3c2.5,0.9,4.5,2.2,6.1,3.8
				c1.6,1.7,2.7,3.6,3.4,6c0.7,2.3,1,4.9,1,7.8V115.8z M402.7,120.8c2.5,0,4.2-0.5,5.2-1.5c1-1,1.5-2.8,1.5-5.6v-6.7
				c0-2.9-0.5-4.9-1.5-5.9c-1-1-2.7-1.6-5.2-1.6h-17.1c-2.5,0-4.2,0.5-5.2,1.6c-1,1.1-1.4,3-1.4,5.9v6.7c0,2.7,0.5,4.6,1.4,5.6
				c1,1,2.7,1.5,5.2,1.5H402.7z"/>
			<path className="st7" d="M471.5,87.3v47.4h-17.9V87.3h-26.2l-5.8-15.1v-0.7h83.9c1.7,0,2.5,0.9,2.5,2.6v16.4l-16.6,6.2h-0.7v-8.4
				c0-0.6-0.3-1-1-1H471.5z"/>
			<path className="st7" d="M513.7,67h15.7v20.1h23.2c3.5,0,6.5,0.4,9,1.3c2.5,0.9,4.5,2.2,6,3.8c1.5,1.7,2.7,3.6,3.3,6
				c0.7,2.3,1,4.9,1,7.8v28.8h-15.7v-27.7c0-2.8-0.6-4.7-1.7-5.8c-1.1-1.1-2.8-1.7-5-1.7h-17l-2.6-7h-0.6v42.1h-15.7V67z"/>
			<path className="st7" d="M579.8,79.6V67h15.7v12.6H579.8z M579.8,134.8V87.1h15.7v47.7H579.8z"/>
			<path className="st7" d="M603.6,87.1h38.9c3.5,0,6.5,0.4,9,1.3c2.5,0.9,4.5,2.2,6,3.8c1.5,1.7,2.7,3.6,3.3,6c0.7,2.3,1,4.9,1,7.8
				v28.8h-15.7v-27.7c0-2.8-0.5-4.7-1.6-5.8c-1-1.1-2.8-1.7-5.1-1.7h-17l-2.6-7h-0.6v42.1h-15.7V87.1z"/>
			<path className="st7" d="M670.9,141h34.5c2.3,0,3.8-0.5,4.7-1.5c0.9-1,1.3-2.6,1.3-4.8v-3.8h-23.2c-7.1,0-12.2-1.4-15.1-4.3
				c-3-2.9-4.4-7.2-4.4-13.1V106c0-2.9,0.3-5.5,1-7.8c0.7-2.3,1.8-4.3,3.4-6c1.6-1.7,3.6-2.9,6-3.8c2.5-0.9,5.5-1.3,9.1-1.3h34.7
				c2.9,0,4.3,1.4,4.3,4.3v44.3c0,2.8-0.3,5.3-1,7.6c-0.7,2.3-1.8,4.2-3.3,5.9c-1.5,1.6-3.5,2.9-6,3.8c-2.5,0.9-5.6,1.3-9.2,1.3
				h-36.9V141z M710.8,129.1h0.6v-28.1c0-1-0.5-1.5-1.5-1.5h-18.8c-2.4,0-4.2,0.5-5.2,1.6c-1,1.1-1.6,3-1.6,5.8v4.4
				c0,2.6,0.5,4.4,1.5,5.3c1,1,2.8,1.4,5.3,1.4h15.4L710.8,129.1z"/>
			<path className="st7" d="M734.6,121.4h39c0.9,0,1.6-0.2,1.9-0.6c0.3-0.4,0.5-1,0.5-1.9v-1c0-0.6-0.1-1.1-0.3-1.4
				c-0.2-0.3-0.7-0.5-1.4-0.6l-29.6-2.5c-3.6-0.3-6.3-1.4-8.1-3.4c-1.7-2-2.6-4.6-2.6-7.9v-3.8c0-3.5,1-6.2,2.9-8.2c1.9-2,5-3,9.4-3
				h43c1.4,0,2.2,0.7,2.2,2.2v10.7l-13.6,5h-0.6v-5.5c0-0.5-0.2-0.7-0.6-0.7h-24.9c-0.9,0-1.5,0.2-1.8,0.5c-0.3,0.3-0.5,0.9-0.5,1.7
				v1.3c0,0.8,0.1,1.3,0.4,1.6c0.3,0.2,0.7,0.4,1.4,0.5l30.3,3c2,0.2,3.7,0.6,5,1.1c1.3,0.6,2.4,1.3,3.2,2.3c0.8,1,1.4,2.1,1.7,3.5
				c0.3,1.4,0.5,3,0.5,4.9v3.6c0,3.8-1,6.8-3,8.9c-2,2.1-5.5,3.1-10.6,3.1h-43.8V121.4z"/>
		</g>
	</g>
	<g>
		<g>
			<path className="st4" d="M422.8,183.1h25.1c0.6,0,1-0.1,1.2-0.4c0.2-0.2,0.3-0.6,0.3-1.2v-0.7c0-0.4-0.1-0.7-0.2-0.9
				c-0.2-0.2-0.4-0.3-0.9-0.4l-19.1-1.6c-2.4-0.2-4.1-0.9-5.2-2.2c-1.1-1.3-1.7-3-1.7-5.1v-2.5c0-2.2,0.6-4,1.8-5.3
				c1.2-1.3,3.2-1.9,6-1.9H458c0.9,0,1.4,0.5,1.4,1.4v6.9l-8.7,3.2h-0.4V169c0-0.3-0.1-0.4-0.4-0.4h-16c-0.6,0-1,0.1-1.2,0.3
				c-0.2,0.2-0.3,0.6-0.3,1.1v0.8c0,0.5,0.1,0.9,0.3,1c0.2,0.2,0.5,0.3,0.9,0.3l19.5,1.9c1.3,0.1,2.4,0.4,3.2,0.7
				c0.9,0.4,1.5,0.9,2.1,1.5c0.5,0.6,0.9,1.4,1.1,2.3s0.3,1.9,0.3,3.1v2.3c0,2.5-0.6,4.4-1.9,5.7c-1.3,1.3-3.6,2-6.9,2h-28.2V183.1z
				"/>
			<path className="st4" d="M488.2,168.7h-9v23h-10.1v-23h-4l-2.8-7.3V161h6.8v-10h10.1v10h9V168.7z"/>
			<path className="st4" d="M491.9,168.6V161h28.5c2,0,3.5,0.6,4.5,1.7c1,1.1,1.4,2.7,1.4,4.9v22.8c0,0.9-0.4,1.3-1.3,1.3h-26.8
				c-1.1,0-2.1-0.1-3-0.4c-0.9-0.3-1.6-0.8-2.2-1.4c-0.6-0.7-1.1-1.6-1.4-2.7c-0.3-1.1-0.5-2.5-0.5-4.1v-2.3c0-2.9,0.6-5,1.9-6.2
				c1.2-1.2,3-1.9,5.2-1.9h15.6l1.9,4.5h0.4V171c0-0.9-0.2-1.5-0.5-1.8c-0.4-0.4-0.9-0.6-1.6-0.6H491.9z M515.5,184.1
				c0.4,0,0.6-0.2,0.6-0.7v-4.7h-13.3c-0.7,0-1.1,0.2-1.4,0.5c-0.3,0.3-0.4,0.8-0.4,1.5v1.3c0,0.6,0.1,1.1,0.4,1.5
				c0.3,0.4,0.8,0.5,1.4,0.5H515.5z"/>
			<path className="st4" d="M553.2,168.7h-9v23h-10.1v-23h-4l-2.8-7.3V161h6.8v-10h10.1v10h9V168.7z"/>
			<path className="st4" d="M556.5,183.1h25.1c0.6,0,1-0.1,1.2-0.4c0.2-0.2,0.3-0.6,0.3-1.2v-0.7c0-0.4-0.1-0.7-0.2-0.9
				c-0.1-0.2-0.4-0.3-0.9-0.4L563,178c-2.4-0.2-4.1-0.9-5.2-2.2c-1.1-1.3-1.7-3-1.7-5.1v-2.5c0-2.2,0.6-4,1.8-5.3
				c1.2-1.3,3.2-1.9,6-1.9h27.7c0.9,0,1.4,0.5,1.4,1.4v6.9l-8.7,3.2h-0.4V169c0-0.3-0.1-0.4-0.4-0.4h-16c-0.6,0-1,0.1-1.2,0.3
				c-0.2,0.2-0.3,0.6-0.3,1.1v0.8c0,0.5,0.1,0.9,0.3,1c0.2,0.2,0.5,0.3,0.9,0.3l19.5,1.9c1.3,0.1,2.4,0.4,3.2,0.7
				c0.9,0.4,1.5,0.9,2.1,1.5c0.5,0.6,0.9,1.4,1.1,2.3c0.2,0.9,0.3,1.9,0.3,3.1v2.3c0,2.5-0.6,4.4-1.9,5.7c-1.3,1.3-3.6,2-6.9,2
				h-28.2V183.1z"/>
		</g>
		<g>
			<path className="st6" d="M419.6,195v-15.1h4.5c-0.9-0.5-1.8-1.1-2.4-1.9c-1.7-1.9-2.5-4.3-2.5-7.2v-2.5c0-3.1,0.9-5.6,2.7-7.5
				c1.9-1.9,4.7-2.9,8.4-2.9H458c2.7,0,4.7,1.9,4.7,4.7v9.1l-3.3,1.2c0.6,0.4,1.1,0.9,1.6,1.4c0.9,1,1.5,2.2,1.8,3.6
				c0.3,1.1,0.4,2.4,0.4,3.9v2.3c0,3.3-1,6-2.8,8c-1.9,2-5,3-9.2,3H419.6z"/>
			<polygon className="st6" points="465.9,195 465.9,172 462.9,172 459.1,162.1 459.1,157.8 465.9,157.8 465.9,147.7 482.5,147.7
				482.5,157.8 491.5,157.8 491.5,172 482.5,172 482.5,195 			"/>
			<path className="st6" d="M498.2,195c-1.5,0-2.8-0.2-4-0.6c-1.4-0.5-2.6-1.2-3.6-2.3c-1-1-1.7-2.4-2.1-4c-0.4-1.4-0.6-3-0.6-5v-2.3
				c0-3.8,1-6.7,2.8-8.5c0.1-0.1,0.3-0.3,0.4-0.4h-2.5v-14.1h31.8c3,0,5.3,1,6.9,2.8c1.5,1.7,2.2,4.1,2.2,7v22.8
				c0,2.7-1.9,4.6-4.5,4.6H498.2z"/>
			<polygon className="st6" points="530.9,195 530.9,172 527.9,172 524.1,162.1 524.1,157.8 530.9,157.8 530.9,147.7 547.5,147.7
				547.5,157.8 556.5,157.8 556.5,172 547.5,172 547.5,195 			"/>
			<path className="st6" d="M553.2,195v-15.1h4.5c-0.9-0.5-1.8-1.1-2.4-1.9c-1.7-1.9-2.5-4.3-2.5-7.2v-2.5c0-3.1,0.9-5.6,2.7-7.5
				c1.9-1.9,4.7-2.9,8.4-2.9h27.7c2.7,0,4.7,1.9,4.7,4.7v9.1l-3.3,1.2c0.6,0.4,1.1,0.9,1.6,1.4c0.9,1,1.5,2.2,1.8,3.6
				c0.3,1.1,0.4,2.4,0.4,3.9v2.3c0,3.3-1,6-2.8,8c-1.9,2-5,3-9.2,3H553.2z"/>
		</g>
		<g>
			<path className="st8" d="M422.8,183.1h25.1c0.6,0,1-0.1,1.2-0.4c0.2-0.2,0.3-0.6,0.3-1.2v-0.7c0-0.4-0.1-0.7-0.2-0.9
				c-0.2-0.2-0.4-0.3-0.9-0.4l-19.1-1.6c-2.4-0.2-4.1-0.9-5.2-2.2c-1.1-1.3-1.7-3-1.7-5.1v-2.5c0-2.2,0.6-4,1.8-5.3
				c1.2-1.3,3.2-1.9,6-1.9H458c0.9,0,1.4,0.5,1.4,1.4v6.9l-8.7,3.2h-0.4V169c0-0.3-0.1-0.4-0.4-0.4h-16c-0.6,0-1,0.1-1.2,0.3
				c-0.2,0.2-0.3,0.6-0.3,1.1v0.8c0,0.5,0.1,0.9,0.3,1c0.2,0.2,0.5,0.3,0.9,0.3l19.5,1.9c1.3,0.1,2.4,0.4,3.2,0.7
				c0.9,0.4,1.5,0.9,2.1,1.5c0.5,0.6,0.9,1.4,1.1,2.3s0.3,1.9,0.3,3.1v2.3c0,2.5-0.6,4.4-1.9,5.7c-1.3,1.3-3.6,2-6.9,2h-28.2V183.1z
				"/>
			<path className="st8" d="M488.2,168.7h-9v23h-10.1v-23h-4l-2.8-7.3V161h6.8v-10h10.1v10h9V168.7z"/>
			<path className="st8" d="M491.9,168.6V161h28.5c2,0,3.5,0.6,4.5,1.7c1,1.1,1.4,2.7,1.4,4.9v22.8c0,0.9-0.4,1.3-1.3,1.3h-26.8
				c-1.1,0-2.1-0.1-3-0.4c-0.9-0.3-1.6-0.8-2.2-1.4c-0.6-0.7-1.1-1.6-1.4-2.7c-0.3-1.1-0.5-2.5-0.5-4.1v-2.3c0-2.9,0.6-5,1.9-6.2
				c1.2-1.2,3-1.9,5.2-1.9h15.6l1.9,4.5h0.4V171c0-0.9-0.2-1.5-0.5-1.8c-0.4-0.4-0.9-0.6-1.6-0.6H491.9z M515.5,184.1
				c0.4,0,0.6-0.2,0.6-0.7v-4.7h-13.3c-0.7,0-1.1,0.2-1.4,0.5c-0.3,0.3-0.4,0.8-0.4,1.5v1.3c0,0.6,0.1,1.1,0.4,1.5
				c0.3,0.4,0.8,0.5,1.4,0.5H515.5z"/>
			<path className="st8" d="M553.2,168.7h-9v23h-10.1v-23h-4l-2.8-7.3V161h6.8v-10h10.1v10h9V168.7z"/>
			<path className="st8" d="M556.5,183.1h25.1c0.6,0,1-0.1,1.2-0.4c0.2-0.2,0.3-0.6,0.3-1.2v-0.7c0-0.4-0.1-0.7-0.2-0.9
				c-0.1-0.2-0.4-0.3-0.9-0.4L563,178c-2.4-0.2-4.1-0.9-5.2-2.2c-1.1-1.3-1.7-3-1.7-5.1v-2.5c0-2.2,0.6-4,1.8-5.3
				c1.2-1.3,3.2-1.9,6-1.9h27.7c0.9,0,1.4,0.5,1.4,1.4v6.9l-8.7,3.2h-0.4V169c0-0.3-0.1-0.4-0.4-0.4h-16c-0.6,0-1,0.1-1.2,0.3
				c-0.2,0.2-0.3,0.6-0.3,1.1v0.8c0,0.5,0.1,0.9,0.3,1c0.2,0.2,0.5,0.3,0.9,0.3l19.5,1.9c1.3,0.1,2.4,0.4,3.2,0.7
				c0.9,0.4,1.5,0.9,2.1,1.5c0.5,0.6,0.9,1.4,1.1,2.3c0.2,0.9,0.3,1.9,0.3,3.1v2.3c0,2.5-0.6,4.4-1.9,5.7c-1.3,1.3-3.6,2-6.9,2
				h-28.2V183.1z"/>
		</g>
	</g>
</g>
</svg>
