<?xml version="1.0" encoding="utf-8"?>
<!-- Generator: Adobe Illustrator 22.1.0, SVG Export Plug-In . SVG Version: 6.00 Build 0)  -->
<svg version="1.1" id="Layer_1" xmlns="http://www.w3.org/2000/svg" xmlns:xlink="http://www.w3.org/1999/xlink" x="0px" y="0px"
	 viewBox="0 0 1280 1024" style="enable-background:new 0 0 1280 1024;" xml:space="preserve">
<style type="text/css">
	.st0{fill:url(#SVGID_1_);}
	.st1{fill:#343A40;}
	.st2{fill:none;stroke:#343A40;stroke-miterlimit:10;}
	.st3{fill:none;stroke:#424441;stroke-width:1.2857;stroke-miterlimit:10;}
	.st4{fill:none;stroke:#514F43;stroke-width:1.5714;stroke-miterlimit:10;}
	.st5{fill:none;stroke:#5F5944;stroke-width:1.8571;stroke-miterlimit:10;}
	.st6{fill:none;stroke:#6D6345;stroke-width:2.1429;stroke-miterlimit:10;}
	.st7{fill:none;stroke:#7B6D46;stroke-width:2.4286;stroke-miterlimit:10;}
	.st8{fill:none;stroke:#8A7848;stroke-width:2.7143;stroke-miterlimit:10;}
	.st9{fill:none;stroke:#988249;stroke-width:3;stroke-miterlimit:10;}
	.st10{fill:none;stroke:#A68C4A;stroke-width:3.2857;stroke-miterlimit:10;}
	.st11{fill:none;stroke:#B5974C;stroke-width:3.5714;stroke-miterlimit:10;}
	.st12{fill:none;stroke:#C3A14D;stroke-width:3.8571;stroke-miterlimit:10;}
	.st13{fill:none;stroke:#D1AB4E;stroke-width:4.1429;stroke-miterlimit:10;}
	.st14{fill:none;stroke:#DFB54F;stroke-width:4.4286;stroke-miterlimit:10;}
	.st15{fill:none;stroke:#EEC051;stroke-width:4.7143;stroke-miterlimit:10;}
	.st16{fill:none;stroke:#FCCA52;stroke-width:5;stroke-miterlimit:10;}
	.st17{fill:#FCCA52;}
	.st18{fill:none;stroke:#FCCA52;stroke-miterlimit:10;}
	.st19{fill:none;stroke:#3366CC;stroke-miterlimit:10;}
	.st20{fill:none;stroke:#40B307;stroke-miterlimit:10;}
	.st21{fill:none;stroke:#FD7400;stroke-miterlimit:10;}
</style>
<g>
	<linearGradient id="SVGID_1_" gradientUnits="userSpaceOnUse" x1="640" y1="1024" x2="640" y2="-9.094947e-13">
		<stop  offset="0" style="stop-color:#FCCA52"/>
		<stop  offset="2.906418e-02" style="stop-color:#E0B64F"/>
		<stop  offset="8.176770e-02" style="stop-color:#B2954B"/>
		<stop  offset="0.1366" style="stop-color:#8B7948"/>
		<stop  offset="0.1929" style="stop-color:#6C6245"/>
		<stop  offset="0.2511" style="stop-color:#535043"/>
		<stop  offset="0.312" style="stop-color:#424441"/>
		<stop  offset="0.3774" style="stop-color:#373C40"/>
		<stop  offset="0.4551" style="stop-color:#343A40"/>
	</linearGradient>
	<rect class="st0" width="1280" height="1024"/>
</g>
<polygon class="st1" points="73.5,508 49.8,508 38,528.5 49.8,549 73.5,549 85.3,528.5 "/>
<g>
	<line class="st2" x1="-0.5" y1="593.5" x2="1280.5" y2="0.5"/>
	<line class="st3" x1="-0.5" y1="586.3" x2="1280.5" y2="20.6"/>
	<line class="st4" x1="-0.5" y1="579.1" x2="1280.5" y2="40.6"/>
	<line class="st5" x1="-0.5" y1="571.9" x2="1280.5" y2="60.7"/>
	<line class="st6" x1="-0.5" y1="564.6" x2="1280.5" y2="80.8"/>
	<line class="st7" x1="-0.5" y1="557.4" x2="1280.5" y2="100.9"/>
	<line class="st8" x1="-0.5" y1="550.2" x2="1280.5" y2="120.9"/>
	<line class="st9" x1="-0.5" y1="543" x2="1280.5" y2="141"/>
	<line class="st10" x1="-0.5" y1="535.8" x2="1280.5" y2="161.1"/>
	<line class="st11" x1="-0.5" y1="528.6" x2="1280.5" y2="181.1"/>
	<line class="st12" x1="-0.5" y1="521.4" x2="1280.5" y2="201.2"/>
	<line class="st13" x1="-0.5" y1="514.1" x2="1280.5" y2="221.3"/>
	<line class="st14" x1="-0.5" y1="506.9" x2="1280.5" y2="241.4"/>
	<line class="st15" x1="-0.5" y1="499.7" x2="1280.5" y2="261.4"/>
	<line class="st16" x1="-0.5" y1="492.5" x2="1280.5" y2="281.5"/>
	<line class="st15" x1="-0.4" y1="476.8" x2="1280.5" y2="333"/>
	<line class="st14" x1="-0.4" y1="461.1" x2="1280.5" y2="384.5"/>
	<line class="st13" x1="-0.3" y1="445.4" x2="1280.5" y2="436"/>
	<line class="st12" x1="-0.2" y1="429.6" x2="1280.5" y2="487.5"/>
	<line class="st11" x1="-0.1" y1="413.9" x2="1280.5" y2="539"/>
	<line class="st10" x1="-0.1" y1="398.2" x2="1280.5" y2="590.5"/>
	<line class="st9" x1="0" y1="382.5" x2="1280.5" y2="642"/>
	<line class="st8" x1="0.1" y1="366.8" x2="1280.5" y2="693.5"/>
	<line class="st7" x1="0.1" y1="351.1" x2="1280.5" y2="745"/>
	<line class="st6" x1="0.2" y1="335.4" x2="1280.5" y2="796.5"/>
	<line class="st5" x1="0.3" y1="319.6" x2="1280.5" y2="848"/>
	<line class="st4" x1="0.4" y1="303.9" x2="1280.5" y2="899.5"/>
	<line class="st3" x1="0.4" y1="288.2" x2="1280.5" y2="951"/>
	<line class="st2" x1="0.5" y1="272.5" x2="1280.5" y2="1002.5"/>
</g>
<g>
	<rect x="375" y="882" class="st17" width="101" height="142"/>
</g>
<g>
	<rect x="476" y="781" class="st17" width="101" height="243"/>
</g>
<g>
	<rect x="577" y="834" class="st17" width="101" height="190"/>
</g>
<g>
	<rect x="678" y="659" class="st17" width="101" height="365"/>
</g>
<g>
	<rect x="779" y="929" class="st17" width="101" height="95"/>
</g>
<g>
	<rect x="880" y="848" class="st17" width="101" height="176"/>
</g>
<g>
	<polygon class="st18" points="1050.6,998.7 1065.9,998.7 1073.6,985.5 1065.9,972.2 1050.6,972.2 1042.9,985.5 	"/>
	<polygon class="st18" points="1053.9,863 1094.7,863 1115.2,827.6 1094.7,792.3 1053.9,792.3 1033.5,827.6 	"/>
	<polygon class="st18" points="1035,921.8 1052.9,921.8 1061.8,906.3 1052.9,890.8 1035,890.8 1026,906.3 	"/>
	<polygon class="st18" points="1119.5,948.2 1130.3,948.2 1135.7,938.9 1130.3,929.6 1119.5,929.6 1114.1,938.9 	"/>
	<polygon class="st18" points="1151,929.5 1160.8,929.5 1165.7,921.1 1160.8,912.6 1151,912.6 1146.1,921.1 	"/>
	<polygon class="st18" points="1191.9,817.8 1228.9,817.8 1247.5,785.8 1228.9,753.7 1191.9,753.7 1173.4,785.8 	"/>
	<polygon class="st18" points="1133.6,903.9 1182.3,903.9 1206.7,861.7 1182.3,819.4 1133.6,819.4 1109.2,861.7 	"/>
	<polygon class="st18" points="1125,785.8 1134.8,785.8 1139.7,777.3 1134.8,768.8 1125,768.8 1120.1,777.3 	"/>
</g>
<g>
	<polygon class="st18" points="1018.6,808.7 1033.9,808.7 1041.6,795.5 1033.9,782.2 1018.6,782.2 1010.9,795.5 	"/>
	<polygon class="st18" points="1021.9,673 1062.7,673 1083.2,637.6 1062.7,602.3 1021.9,602.3 1001.5,637.6 	"/>
	<polygon class="st18" points="1003,731.8 1020.9,731.8 1029.8,716.3 1020.9,700.8 1003,700.8 994,716.3 	"/>
	<polygon class="st18" points="1087.5,758.2 1098.3,758.2 1103.7,748.9 1098.3,739.6 1087.5,739.6 1082.1,748.9 	"/>
	<polygon class="st18" points="1119,739.5 1128.8,739.5 1133.7,731.1 1128.8,722.6 1119,722.6 1114.1,731.1 	"/>
	<polygon class="st18" points="1159.9,627.8 1196.9,627.8 1215.5,595.8 1196.9,563.7 1159.9,563.7 1141.4,595.8 	"/>
	<polygon class="st18" points="1101.6,713.9 1150.3,713.9 1174.7,671.7 1150.3,629.4 1101.6,629.4 1077.2,671.7 	"/>
	<polygon class="st18" points="1093,595.8 1102.8,595.8 1107.7,587.3 1102.8,578.8 1093,578.8 1088.1,587.3 	"/>
</g>
<g>
	<polygon class="st18" points="314.5,592 290.8,592 279,612.5 290.8,633 314.5,633 326.3,612.5 	"/>
	<polygon class="st18" points="309.3,801.8 246.2,801.8 214.7,856.4 246.2,911 309.3,911 340.8,856.4 	"/>
	<polygon class="st18" points="338.6,710.9 311,710.9 297.1,734.8 311,758.8 338.6,758.8 352.5,734.8 	"/>
	<polygon class="st18" points="208,670 191.3,670 183,684.4 191.3,698.9 208,698.9 216.3,684.4 	"/>
	<polygon class="st18" points="159.3,698.9 144.1,698.9 136.6,712 144.1,725.1 159.3,725.1 166.9,712 	"/>
	<polygon class="st18" points="96.1,871.5 38.8,871.5 10.2,921.1 38.8,970.7 96.1,970.7 124.7,921.1 	"/>
	<polygon class="st18" points="186.2,738.6 110.8,738.6 73.2,803.8 110.8,869.1 186.2,869.1 223.9,803.8 	"/>
	<polygon class="st18" points="199.5,921.1 184.3,921.1 176.7,934.2 184.3,947.4 199.5,947.4 207,934.2 	"/>
</g>
<polygon class="st17" points="348.2,384.6 272.8,384.6 235.2,449.8 272.8,515.1 348.2,515.1 385.9,449.8 "/>
<line class="st19" x1="18.5" y1="0.5" x2="18.5" y2="1023.5"/>
<line class="st20" x1="43.5" y1="3" x2="43.5" y2="1026"/>
<line class="st21" x1="67.5" y1="3" x2="67.5" y2="1026"/>
</svg>
