<?xml version="1.0" encoding="utf-8"?>
<!-- Generator: Adobe Illustrator 22.1.0, SVG Export Plug-In . SVG Version: 6.00 Build 0)  -->
<svg version="1.1" id="Layer_1" xmlns="http://www.w3.org/2000/svg" xmlns:xlink="http://www.w3.org/1999/xlink" x="0px" y="0px"
	 viewBox="0 0 1280 1024" style="enable-background:new 0 0 1280 1024;" xml:space="preserve">
<style type="text/css">
	.st0{fill:url(#SVGID_1_);}
	.st1{fill:#343A40;}
	.st2{fill:none;stroke:#FD7400;stroke-miterlimit:10;}
	.st3{fill:none;stroke:#FD7400;stroke-width:5;stroke-miterlimit:10;}
	.st4{fill:none;stroke:#FD7400;stroke-width:2;stroke-miterlimit:10;}
	.st5{fill:#FD7400;}
	.st6{fill:none;stroke:#FD7808;stroke-width:4.75;stroke-miterlimit:10;}
	.st7{fill:none;stroke:#FD7C0F;stroke-width:4.5;stroke-miterlimit:10;}
	.st8{fill:none;stroke:#FE7F17;stroke-width:4.25;stroke-miterlimit:10;}
	.st9{fill:none;stroke:#FE831F;stroke-width:4;stroke-miterlimit:10;}
	.st10{fill:none;stroke:#FE8726;stroke-width:3.75;stroke-miterlimit:10;}
	.st11{fill:none;stroke:#FE8B2E;stroke-width:3.5;stroke-miterlimit:10;}
	.st12{fill:none;stroke:#FE8F36;stroke-width:3.25;stroke-miterlimit:10;}
	.st13{fill:none;stroke:#FE933D;stroke-width:3;stroke-miterlimit:10;}
	.st14{fill:none;stroke:#FF9645;stroke-width:2.75;stroke-miterlimit:10;}
	.st15{fill:none;stroke:#FF9A4D;stroke-width:2.5;stroke-miterlimit:10;}
	.st16{fill:none;stroke:#FF9E54;stroke-width:2.25;stroke-miterlimit:10;}
	.st17{fill:none;stroke:#FFA25C;stroke-width:2;stroke-miterlimit:10;}
</style>
<g>
	<linearGradient id="SVGID_1_" gradientUnits="userSpaceOnUse" x1="640" y1="1024" x2="640" y2="-9.094947e-13">
		<stop  offset="0" style="stop-color:#FD7400"/>
		<stop  offset="2.994110e-02" style="stop-color:#E06C09"/>
		<stop  offset="8.255201e-02" style="stop-color:#B25E18"/>
		<stop  offset="0.1373" style="stop-color:#8B5324"/>
		<stop  offset="0.1935" style="stop-color:#6C4A2E"/>
		<stop  offset="0.2516" style="stop-color:#534336"/>
		<stop  offset="0.3123" style="stop-color:#423E3C"/>
		<stop  offset="0.3776" style="stop-color:#373B3F"/>
		<stop  offset="0.4551" style="stop-color:#343A40"/>
	</linearGradient>
	<rect class="st0" width="1280" height="1024"/>
</g>
<polygon class="st1" points="1227.5,624 1203.8,624 1192,644.5 1203.8,665 1227.5,665 1239.3,644.5 "/>
<polygon class="st1" points="190.9,723.9 161,723.9 146.1,749.7 161,775.6 190.9,775.6 205.8,749.7 "/>
<polygon class="st2" points="85.5,492.5 44.5,492.5 24,528 44.5,563.5 85.5,563.5 106,528 "/>
<polygon class="st3" points="1129.9,867.5 1049.1,867.5 1008.7,937.5 1049.1,1007.5 1129.9,1007.5 1170.3,937.5 "/>
<polygon class="st4" points="1230.9,679.5 1150.1,679.5 1109.7,749.5 1150.1,819.5 1230.9,819.5 1271.3,749.5 "/>
<polygon class="st2" points="1152.9,518.5 1072.1,518.5 1031.7,588.5 1072.1,658.5 1152.9,658.5 1193.3,588.5 "/>
<polygon class="st5" points="528.7,901.7 528.7,957.5 476.8,957.5 476.8,798.9 419.7,798.9 419.7,933.7 372.4,933.7 372.4,878.5 
	321,878.5 321,1023.7 372.4,1023.7 419.7,1023.7 419.7,1026 476.8,1026 476.8,1023.7 528.7,1023.7 528.7,1026 591,1026 591,901.7 
	"/>
<polygon class="st1" points="1222.3,833.8 1159.2,833.8 1127.7,888.4 1159.2,943 1222.3,943 1253.8,888.4 "/>
<polygon class="st1" points="1251.6,742.9 1224,742.9 1210.1,766.8 1224,790.8 1251.6,790.8 1265.5,766.8 "/>
<polygon class="st1" points="1121,702 1104.3,702 1096,716.4 1104.3,730.9 1121,730.9 1129.3,716.4 "/>
<polygon class="st1" points="73.5,508 49.8,508 38,528.5 49.8,549 73.5,549 85.3,528.5 "/>
<polygon class="st3" points="67.4,894.5 42.6,894.5 30.2,916 42.6,937.5 67.4,937.5 79.8,916 "/>
<g>
	<polygon class="st3" points="338.1,293.5 161.7,293.5 73.5,446.2 161.7,599 338.1,599 426.3,446.2 	"/>
	<polygon class="st6" points="86.9,443.9 166.4,586.3 329.4,588.6 412.9,448.6 333.4,306.2 170.4,303.9 	"/>
	<polygon class="st7" points="100.2,441.6 171.1,573.5 320.7,578.1 399.5,450.9 328.7,319 179,314.4 	"/>
	<polygon class="st8" points="113.6,439.3 175.8,560.8 312,567.7 386.1,453.2 324,331.7 187.7,324.8 	"/>
	<polygon class="st9" points="127,437 180.4,548.1 303.3,557.3 372.8,455.5 319.3,344.4 196.4,335.2 	"/>
	<polygon class="st10" points="140.3,434.7 185.1,535.4 294.7,546.9 359.4,457.8 314.6,357.1 205,345.6 	"/>
	<polygon class="st11" points="153.7,432.4 189.8,522.6 286,536.4 346,460.1 309.9,369.9 213.7,356.1 	"/>
	<polygon class="st12" points="167,430.1 194.5,509.9 277.3,526 332.6,462.4 305.2,382.6 222.4,366.5 	"/>
	<polygon class="st13" points="180.4,427.8 199.2,497.2 268.6,515.6 319.3,464.7 300.5,395.3 231.1,376.9 	"/>
	<polygon class="st14" points="193.8,425.5 203.9,484.4 259.9,505.1 305.9,467 295.8,408.1 239.7,387.4 	"/>
	<polygon class="st15" points="207.1,423.2 208.6,471.7 251.2,494.7 292.5,469.3 291.1,420.8 248.4,397.8 	"/>
	<polygon class="st16" points="220.5,420.9 213.2,459 242.6,484.3 279.1,471.6 286.4,433.5 257.1,408.2 	"/>
	<polygon class="st17" points="265.7,418.6 233.9,418.6 217.9,446.2 233.9,473.9 265.7,473.9 281.7,446.2 	"/>
</g>
<g>
	<polygon class="st3" points="936.5,568 684.5,568 558.5,786.2 684.5,1004.4 936.5,1004.4 1062.4,786.2 	"/>
	<polygon class="st6" points="577.6,782.9 691.2,986.2 924.1,989.5 1043.3,789.5 929.7,586.2 696.9,582.9 	"/>
	<polygon class="st7" points="596.7,779.6 697.9,968.1 911.6,974.6 1024.2,792.8 923,604.4 709.3,597.8 	"/>
	<polygon class="st8" points="615.8,776.4 704.6,949.9 899.2,959.7 1005.1,796.1 916.3,622.6 721.6,612.7 	"/>
	<polygon class="st9" points="634.9,773.1 711.3,931.7 886.8,944.8 986,799.4 909.6,640.7 734,627.6 	"/>
	<polygon class="st10" points="654,769.8 718,913.5 874.4,929.9 966.9,802.6 902.9,658.9 746.4,642.5 	"/>
	<polygon class="st11" points="673,766.5 724.7,895.3 862,915 947.8,805.9 896.2,677.1 758.8,657.4 	"/>
	<polygon class="st12" points="692.1,763.2 731.4,877.1 849.6,900.1 928.7,809.2 889.5,695.3 771.2,672.3 	"/>
	<polygon class="st13" points="711.2,759.9 738,859 837.2,885.2 909.6,812.5 882.8,713.5 783.6,687.2 	"/>
	<polygon class="st14" points="730.3,756.6 744.7,840.8 824.8,870.3 890.5,815.8 876,731.7 796,702.1 	"/>
	<polygon class="st15" points="749.4,753.4 751.4,822.6 812.4,855.4 871.4,819.1 869.3,749.8 808.4,717 	"/>
	<polygon class="st16" points="768.5,750.1 758.1,804.4 800,840.5 852.2,822.4 862.6,768 820.7,731.9 	"/>
	<polygon class="st17" points="833.1,746.8 787.6,746.8 764.8,786.2 787.6,825.7 833.1,825.7 855.9,786.2 	"/>
</g>
<polygon class="st1" points="1072.3,730.9 1057.1,730.9 1049.6,744 1057.1,757.1 1072.3,757.1 1079.9,744 "/>
<polygon class="st1" points="1009.1,903.5 951.8,903.5 923.2,953.1 951.8,1002.7 1009.1,1002.7 1037.7,953.1 "/>
<polygon class="st1" points="1099.2,770.6 1023.8,770.6 986.2,835.8 1023.8,901.1 1099.2,901.1 1136.9,835.8 "/>
<polygon class="st1" points="1186.5,875.8 1153.4,875.8 1136.9,904.4 1153.4,933.1 1186.5,933.1 1203,904.4 "/>
<polygon class="st1" points="1112.5,953.1 1097.3,953.1 1089.7,966.2 1097.3,979.4 1112.5,979.4 1120,966.2 "/>
<polygon class="st3" points="208.9,800.5 128.1,800.5 87.7,870.5 128.1,940.5 208.9,940.5 249.3,870.5 "/>
<polygon class="st3" points="309.9,612.5 229.1,612.5 188.7,682.5 229.1,752.5 309.9,752.5 350.3,682.5 "/>
<polygon class="st3" points="128.9,593.5 48.1,593.5 7.7,663.5 48.1,733.5 128.9,733.5 169.3,663.5 "/>
<polygon class="st1" points="301.3,766.8 238.2,766.8 206.7,821.4 238.2,876 301.3,876 332.8,821.4 "/>
<polygon class="st1" points="330.6,675.9 303,675.9 289.1,699.8 303,723.8 330.6,723.8 344.5,699.8 "/>
<polygon class="st1" points="151.3,663.9 136.1,663.9 128.6,677 136.1,690.1 151.3,690.1 158.9,677 "/>
<polygon class="st1" points="88.1,836.5 30.8,836.5 2.2,886.1 30.8,935.7 88.1,935.7 116.7,886.1 "/>
<polygon class="st1" points="178.2,703.6 102.8,703.6 65.2,768.8 102.8,834.1 178.2,834.1 215.9,768.8 "/>
<polygon class="st1" points="265.5,808.8 232.4,808.8 215.9,837.4 232.4,866.1 265.5,866.1 282,837.4 "/>
<polygon class="st1" points="191.5,886.1 176.3,886.1 168.7,899.2 176.3,912.4 191.5,912.4 199,899.2 "/>
</svg>
