<?xml version="1.0" encoding="utf-8"?>
<!-- Generator: Adobe Illustrator 22.1.0, SVG Export Plug-In . SVG Version: 6.00 Build 0)  -->
<svg version="1.1" id="Layer_1" xmlns="http://www.w3.org/2000/svg" xmlns:xlink="http://www.w3.org/1999/xlink" x="0px" y="0px"
	 viewBox="0 0 1280 1024" style="enable-background:new 0 0 1280 1024;" xml:space="preserve">
<style type="text/css">
	.st0{fill:url(#SVGID_1_);}
	.st1{fill:none;stroke:#3366CC;stroke-miterlimit:10;}
	.st2{fill:none;stroke:#343A40;stroke-miterlimit:10;}
	.st3{fill:none;stroke:#343C47;stroke-miterlimit:10;}
	.st4{fill:none;stroke:#343E4D;stroke-miterlimit:10;}
	.st5{fill:none;stroke:#344054;stroke-miterlimit:10;}
	.st6{fill:none;stroke:#34425B;stroke-miterlimit:10;}
	.st7{fill:none;stroke:#344461;stroke-miterlimit:10;}
	.st8{fill:none;stroke:#344768;stroke-miterlimit:10;}
	.st9{fill:none;stroke:#34496F;stroke-miterlimit:10;}
	.st10{fill:none;stroke:#344B75;stroke-miterlimit:10;}
	.st11{fill:none;stroke:#344D7C;stroke-miterlimit:10;}
	.st12{fill:none;stroke:#344F83;stroke-miterlimit:10;}
	.st13{fill:none;stroke:#335189;stroke-miterlimit:10;}
	.st14{fill:none;stroke:#335390;stroke-miterlimit:10;}
	.st15{fill:none;stroke:#335597;stroke-miterlimit:10;}
	.st16{fill:none;stroke:#33579D;stroke-miterlimit:10;}
	.st17{fill:none;stroke:#3359A4;stroke-miterlimit:10;}
	.st18{fill:none;stroke:#335CAB;stroke-miterlimit:10;}
	.st19{fill:none;stroke:#335EB1;stroke-miterlimit:10;}
	.st20{fill:none;stroke:#3360B8;stroke-miterlimit:10;}
	.st21{fill:none;stroke:#3362BF;stroke-miterlimit:10;}
	.st22{fill:none;stroke:#3364C5;stroke-miterlimit:10;}
	.st23{fill:#343A40;}
	.st24{fill:none;stroke:#3366CC;stroke-width:5;stroke-miterlimit:10;}
	.st25{fill:#3366CC;}
</style>
<g>
	<linearGradient id="SVGID_1_" gradientUnits="userSpaceOnUse" x1="640" y1="1024" x2="640" y2="-9.094947e-13">
		<stop  offset="0" style="stop-color:#3366CC"/>
		<stop  offset="2.061084e-02" style="stop-color:#3362BE"/>
		<stop  offset="8.370169e-02" style="stop-color:#335597"/>
		<stop  offset="0.1493" style="stop-color:#344C78"/>
		<stop  offset="0.2172" style="stop-color:#34445F"/>
		<stop  offset="0.2882" style="stop-color:#343E4E"/>
		<stop  offset="0.3645" style="stop-color:#343B43"/>
		<stop  offset="0.4551" style="stop-color:#343A40"/>
	</linearGradient>
	<rect class="st0" width="1280" height="1024"/>
</g>
<line class="st1" x1="1276.5" y1="1023.5" x2="1094.5" y2="806.5"/>
<line class="st1" x1="1113.5" y1="640.5" x2="1094.5" y2="806.5"/>
<line class="st1" x1="1256.5" y1="393.5" x2="1094.5" y2="806.5"/>
<g>
	<line class="st2" x1="685.5" y1="562.5" x2="377.5" y2="582.5"/>
	<line class="st3" x1="658" y1="546.4" x2="359.6" y2="603.3"/>
	<line class="st4" x1="630.5" y1="530.3" x2="341.7" y2="624.1"/>
	<line class="st5" x1="603.1" y1="514.2" x2="323.8" y2="644.9"/>
	<line class="st6" x1="575.6" y1="498.1" x2="305.9" y2="665.7"/>
	<line class="st7" x1="548.1" y1="482" x2="288" y2="686.5"/>
	<line class="st8" x1="520.6" y1="465.9" x2="270.1" y2="707.4"/>
	<line class="st9" x1="493.2" y1="449.8" x2="252.2" y2="728.2"/>
	<line class="st10" x1="465.7" y1="433.7" x2="234.3" y2="749"/>
	<line class="st11" x1="438.2" y1="417.6" x2="216.4" y2="769.8"/>
	<line class="st12" x1="410.7" y1="401.5" x2="198.5" y2="790.6"/>
	<line class="st13" x1="383.3" y1="385.5" x2="180.5" y2="811.4"/>
	<line class="st14" x1="355.8" y1="369.4" x2="162.6" y2="832.2"/>
	<line class="st15" x1="328.3" y1="353.3" x2="144.7" y2="853"/>
	<line class="st16" x1="300.8" y1="337.2" x2="126.8" y2="873.8"/>
	<line class="st17" x1="273.4" y1="321.1" x2="108.9" y2="894.6"/>
	<line class="st18" x1="245.9" y1="305" x2="91" y2="915.5"/>
	<line class="st19" x1="218.4" y1="288.9" x2="73.1" y2="936.3"/>
	<line class="st20" x1="190.9" y1="272.8" x2="55.2" y2="957.1"/>
	<line class="st21" x1="163.5" y1="256.7" x2="37.3" y2="977.9"/>
	<line class="st22" x1="136" y1="240.6" x2="19.4" y2="998.7"/>
	<line class="st1" x1="108.5" y1="224.5" x2="1.5" y2="1019.5"/>
</g>
<polygon class="st23" points="1193.2,853 1103.7,853 1059,930.5 1103.7,1008 1193.2,1008 1238,930.5 "/>
<polygon class="st23" points="1234.9,724 1195.6,724 1176,758 1195.6,792 1234.9,792 1254.5,758 "/>
<polygon class="st23" points="1049.5,666 1025.8,666 1014,686.5 1025.8,707 1049.5,707 1061.3,686.5 "/>
<polygon class="st23" points="1227.5,624 1203.8,624 1192,644.5 1203.8,665 1227.5,665 1239.3,644.5 "/>
<polygon class="st23" points="159.2,821.9 91.2,821.9 57.2,880.8 91.2,939.7 159.2,939.7 193.2,880.8 "/>
<polygon class="st23" points="190.9,723.9 161,723.9 146.1,749.7 161,775.6 190.9,775.6 205.8,749.7 "/>
<polygon class="st23" points="50,679.8 32,679.8 23,695.4 32,711 50,711 59,695.4 "/>
<polygon class="st23" points="185.3,647.9 167.3,647.9 158.3,663.5 167.3,679.1 185.3,679.1 194.2,663.5 "/>
<polygon class="st24" points="300.2,668.5 110.8,668.5 16.1,832.5 110.8,996.5 300.2,996.5 394.9,832.5 "/>
<polygon class="st24" points="1020.5,722.5 979.5,722.5 959,758 979.5,793.5 1020.5,793.5 1041,758 "/>
<polygon class="st24" points="1170.9,492.5 1090.1,492.5 1049.7,562.5 1090.1,632.5 1170.9,632.5 1211.3,562.5 "/>
<polygon class="st24" points="1193.4,800.5 1168.6,800.5 1156.2,822 1168.6,843.5 1193.4,843.5 1205.8,822 "/>
<polygon class="st24" points="80.7,428.5 37.3,428.5 15.7,466 37.3,503.5 80.7,503.5 102.3,466 "/>
<g>
	<line class="st1" x1="1269.5" y1="1017.5" x2="458.5" y2="1017.5"/>
	<line class="st1" x1="1269.7" y1="1011.2" x2="489.8" y2="991.9"/>
	<line class="st1" x1="1269.8" y1="1004.8" x2="521.2" y2="966.3"/>
	<line class="st1" x1="1270" y1="998.5" x2="552.5" y2="940.8"/>
	<line class="st1" x1="1270.1" y1="992.1" x2="583.9" y2="915.2"/>
	<line class="st1" x1="1270.3" y1="985.8" x2="615.2" y2="889.6"/>
	<line class="st1" x1="1270.4" y1="979.4" x2="646.6" y2="864"/>
	<line class="st1" x1="1270.6" y1="973.1" x2="677.9" y2="838.5"/>
	<line class="st1" x1="1270.7" y1="966.7" x2="709.3" y2="812.9"/>
	<line class="st1" x1="1270.9" y1="960.4" x2="740.6" y2="787.3"/>
	<line class="st1" x1="1271" y1="954" x2="772" y2="761.7"/>
	<line class="st1" x1="1271.2" y1="947.7" x2="803.3" y2="736.2"/>
	<line class="st1" x1="1271.3" y1="941.3" x2="834.7" y2="710.6"/>
	<line class="st1" x1="1271.5" y1="935" x2="866" y2="685"/>
	<line class="st1" x1="1271.7" y1="928.7" x2="897.3" y2="659.4"/>
	<line class="st1" x1="1271.8" y1="922.3" x2="928.7" y2="633.8"/>
	<line class="st1" x1="1272" y1="916" x2="960" y2="608.3"/>
	<line class="st1" x1="1272.1" y1="909.6" x2="991.4" y2="582.7"/>
	<line class="st1" x1="1272.3" y1="903.3" x2="1022.7" y2="557.1"/>
	<line class="st1" x1="1272.4" y1="896.9" x2="1054.1" y2="531.5"/>
	<line class="st1" x1="1272.6" y1="890.6" x2="1085.4" y2="506"/>
	<line class="st1" x1="1272.7" y1="884.2" x2="1116.8" y2="480.4"/>
	<line class="st1" x1="1272.9" y1="877.9" x2="1148.1" y2="454.8"/>
	<line class="st1" x1="1273" y1="871.5" x2="1179.5" y2="429.2"/>
	<line class="st1" x1="1273.2" y1="865.2" x2="1210.8" y2="403.7"/>
	<line class="st1" x1="1273.3" y1="858.8" x2="1242.2" y2="378.1"/>
	<line class="st1" x1="1273.5" y1="852.5" x2="1273.5" y2="352.5"/>
</g>
<polygon class="st25" points="479.1,877.9 479.1,943.4 410.8,943.4 410.8,757.1 335.7,757.1 335.7,915.5 273.6,915.5 273.6,850.6 
	206,850.6 206,1021.3 273.6,1021.3 335.7,1021.3 335.7,1024 410.8,1024 410.8,1021.3 479.1,1021.3 479.1,1024 561,1024 561,877.9 
	"/>
</svg>
