<?xml version="1.0" encoding="utf-8"?>
<!-- Generator: Adobe Illustrator 22.1.0, SVG Export Plug-In . SVG Version: 6.00 Build 0)  -->
<svg version="1.1" id="Layer_1" xmlns="http://www.w3.org/2000/svg" xmlns:xlink="http://www.w3.org/1999/xlink" x="0px" y="0px"
	 viewBox="0 0 1280 1024" style="enable-background:new 0 0 1280 1024;" xml:space="preserve">
<style type="text/css">
	.st0{fill:url(#SVGID_1_);}
	.st1{fill:#343A40;}
	.st2{fill:none;stroke:#40B307;stroke-width:5;stroke-miterlimit:10;}
	.st3{fill:#40B307;}
	.st4{fill:none;stroke:#40B307;stroke-miterlimit:10;}
	.st5{fill:none;stroke:#43B609;stroke-miterlimit:10;}
	.st6{fill:none;stroke:#46B90C;stroke-miterlimit:10;}
	.st7{fill:none;stroke:#49BC0E;stroke-miterlimit:10;}
	.st8{fill:none;stroke:#4BBE11;stroke-miterlimit:10;}
	.st9{fill:none;stroke:#4EC113;stroke-miterlimit:10;}
	.st10{fill:none;stroke:#51C416;stroke-miterlimit:10;}
	.st11{fill:none;stroke:#54C718;stroke-miterlimit:10;}
	.st12{fill:none;stroke:#57CA1B;stroke-miterlimit:10;}
	.st13{fill:none;stroke:#5ACD1D;stroke-miterlimit:10;}
	.st14{fill:none;stroke:#5DD020;stroke-miterlimit:10;}
	.st15{fill:none;stroke:#5FD322;stroke-miterlimit:10;}
	.st16{fill:none;stroke:#62D524;stroke-miterlimit:10;}
	.st17{fill:none;stroke:#65D827;stroke-miterlimit:10;}
	.st18{fill:none;stroke:#68DB29;stroke-miterlimit:10;}
	.st19{fill:none;stroke:#6BDE2C;stroke-miterlimit:10;}
	.st20{fill:none;stroke:#6EE12E;stroke-miterlimit:10;}
	.st21{fill:none;stroke:#71E431;stroke-miterlimit:10;}
	.st22{fill:none;stroke:#74E733;stroke-miterlimit:10;}
	.st23{fill:none;stroke:#76E936;stroke-miterlimit:10;}
	.st24{fill:none;stroke:#79EC38;stroke-miterlimit:10;}
	.st25{fill:none;stroke:#7CEF3B;stroke-miterlimit:10;}
	.st26{fill:none;stroke:#7FF23D;stroke-miterlimit:10;}
	.st27{fill:none;stroke:#7CEA3D;stroke-miterlimit:10;}
	.st28{fill:none;stroke:#78E13D;stroke-miterlimit:10;}
	.st29{fill:none;stroke:#75D93D;stroke-miterlimit:10;}
	.st30{fill:none;stroke:#71D13E;stroke-miterlimit:10;}
	.st31{fill:none;stroke:#6EC83E;stroke-miterlimit:10;}
	.st32{fill:none;stroke:#6BC03E;stroke-miterlimit:10;}
	.st33{fill:none;stroke:#67B73E;stroke-miterlimit:10;}
	.st34{fill:none;stroke:#64AF3E;stroke-miterlimit:10;}
	.st35{fill:none;stroke:#60A73E;stroke-miterlimit:10;}
	.st36{fill:none;stroke:#5D9E3E;stroke-miterlimit:10;}
	.st37{fill:none;stroke:#59963E;stroke-miterlimit:10;}
	.st38{fill:none;stroke:#568E3F;stroke-miterlimit:10;}
	.st39{fill:none;stroke:#53853F;stroke-miterlimit:10;}
	.st40{fill:none;stroke:#4F7D3F;stroke-miterlimit:10;}
	.st41{fill:none;stroke:#4C753F;stroke-miterlimit:10;}
	.st42{fill:none;stroke:#486C3F;stroke-miterlimit:10;}
	.st43{fill:none;stroke:#45643F;stroke-miterlimit:10;}
	.st44{fill:none;stroke:#425B3F;stroke-miterlimit:10;}
	.st45{fill:none;stroke:#3E5340;stroke-miterlimit:10;}
	.st46{fill:none;stroke:#3B4B40;stroke-miterlimit:10;}
	.st47{fill:none;stroke:#374240;stroke-miterlimit:10;}
	.st48{fill:none;stroke:#343A40;stroke-miterlimit:10;}
</style>
<g>
	<linearGradient id="SVGID_1_" gradientUnits="userSpaceOnUse" x1="640" y1="1024" x2="640" y2="-9.094947e-13">
		<stop  offset="0" style="stop-color:#40B307"/>
		<stop  offset="6.030679e-02" style="stop-color:#3D9117"/>
		<stop  offset="0.1295" style="stop-color:#3A7226"/>
		<stop  offset="0.2018" style="stop-color:#375931"/>
		<stop  offset="0.2774" style="stop-color:#35483A"/>
		<stop  offset="0.3586" style="stop-color:#343D3E"/>
		<stop  offset="0.4551" style="stop-color:#343A40"/>
	</linearGradient>
	<rect class="st0" width="1280" height="1024"/>
</g>
<polygon class="st1" points="1227.5,624 1203.8,624 1192,644.5 1203.8,665 1227.5,665 1239.3,644.5 "/>
<polygon class="st1" points="190.9,723.9 161,723.9 146.1,749.7 161,775.6 190.9,775.6 205.8,749.7 "/>
<polygon class="st1" points="185.3,647.9 167.3,647.9 158.3,663.5 167.3,679.1 185.3,679.1 194.2,663.5 "/>
<polygon class="st2" points="105.5,586.5 64.5,586.5 44,622 64.5,657.5 105.5,657.5 126,622 "/>
<polygon class="st2" points="1170.9,492.5 1090.1,492.5 1049.7,562.5 1090.1,632.5 1170.9,632.5 1211.3,562.5 "/>
<polygon class="st3" points="1194.4,851.2 1194.4,927.8 1123,927.8 1123,710 1044.6,710 1044.6,895.1 979.6,895.1 979.6,819.3 
	909,819.3 909,1018.8 979.6,1018.8 1044.6,1018.8 1044.6,1022 1123,1022 1123,1018.8 1194.4,1018.8 1194.4,1022 1280,1022 
	1280,851.2 "/>
<g>
	<path class="st4" d="M0,658.2c0,0,225.2,78.1,405.5-66.7c244-196,362,346,761,431"/>
	<path class="st5" d="M0,674.8c0,0,230.2,55.6,410.3-86.1c244-191.9,370.5,331.3,761.3,433.9"/>
	<path class="st6" d="M0,691.4c0,0,235.2,33.1,415.2-105.6c244.1-187.8,379,316.5,761.6,436.7"/>
	<path class="st7" d="M0.1,708c0,0,240.2,10.5,420-125c244.1-183.7,387.5,301.8,762,439.6"/>
	<path class="st8" d="M0.1,724.5c0,0,245.2-12,424.9-144.4c244.2-179.6,396,287.1,762.3,442.5"/>
	<path class="st9" d="M0.1,741.1c0,0,250.2-34.5,429.7-163.8c244.2-175.5,404.5,272.4,762.6,445.3"/>
	<path class="st10" d="M0.1,757.7c0,0,255.2-57,434.5-183.2c244.3-171.5,413,257.6,762.9,448.2"/>
	<path class="st11" d="M0.2,774.3c0,0,260.1-79.6,439.4-202.7c244.3-167.4,421.5,242.9,763.2,451"/>
	<path class="st12" d="M0.2,790.9c0,0,265.1-102.1,444.2-222.1c244.4-163.3,430,228.2,763.5,453.9"/>
	<path class="st13" d="M0.2,807.6c0,0,270.1-124.6,449.1-241.5c244.4-159.2,438.5,213.5,763.9,456.8"/>
	<path class="st14" d="M0.2,824.2c0,0,275.1-147.1,453.9-260.9c244.5-155.1,447,198.7,764.2,459.6"/>
	<path class="st15" d="M0.2,840.8c0,0,280.1-169.6,458.8-280.4c244.5-151,455.5,184,764.5,462.5"/>
	<path class="st16" d="M0.3,857.4c0,0,285.1-192.2,463.6-299.8c244.5-146.9,464,169.3,764.8,465.4"/>
	<path class="st17" d="M0.3,874.1c0,0,290.1-214.7,468.4-319.2c244.6-142.8,472.5,154.5,765.1,468.2"/>
	<path class="st18" d="M0.3,890.7c0,0,295.1-237.2,473.3-338.6c244.6-138.7,481,139.8,765.5,471.1"/>
	<path class="st19" d="M0.3,907.4c0,0,300-259.7,478.1-358c244.7-134.6,489.5,125.1,765.8,474"/>
	<path class="st20" d="M0.4,924.1c0,0,305-282.3,483-377.5c244.7-130.5,498,110.4,766.1,476.8"/>
	<path class="st21" d="M0.4,940.8c0,0,310-304.8,487.8-396.9c244.8-126.5,506.5,95.6,766.4,479.7"/>
	<path class="st22" d="M0.4,957.5c0,0,315-327.3,492.6-416.3c244.8-122.4,515,80.9,766.7,482.5"/>
	<path class="st23" d="M0.4,974.2c0,0,320-349.8,497.5-435.7c244.9-118.3,523.5,66.2,767,485.4"/>
	<path class="st24" d="M0.5,991c0,0,325-372.4,502.3-455.2c244.9-114.2,532,51.5,767.4,488.3"/>
	<path class="st25" d="M0.5,1007.7c0,0,330-394.9,507.2-474.6c245-110.1,540.5,36.7,767.7,491.1"/>
	<path class="st26" d="M0.5,1024.5c0,0,335-417.4,512-494c245-106,549,22,768,494"/>
	<path class="st27" d="M0.5,992c0,0,323.8-388.9,503.2-465.3c244.2-104.5,550.6-8.4,776.8,454.9"/>
	<path class="st28" d="M0.5,959.9c0,0,312.7-360.4,494.4-436.6c243.5-102.9,552.1-38.9,785.6,415.7"/>
	<path class="st29" d="M0.4,928.2c0,0,301.8-331.5,485.6-407.8c242.9-100.9,553.7-69.3,794.5,376.6"/>
	<path class="st30" d="M0.4,897.1c0,0,290.7-302.9,476.8-379.1c242.2-99.2,555.3-99.7,803.3,337.5"/>
	<path class="st31" d="M0.4,866.8c0,0,279.6-274.3,468-350.4c241.4-97.5,556.8-130.2,812.1,298.3"/>
	<path class="st32" d="M0.4,837.3c0,0,268.5-245.7,459.2-321.7c240.7-95.9,558.4-160.6,820.9,259.2"/>
	<path class="st33" d="M0.3,808.8c0,0,257.5-217.1,450.4-292.9c239.9-94.3,560-191,829.7,220"/>
	<path class="st34" d="M0.3,781.2c0,0,246.4-188.5,441.6-264.2c239.2-92.7,561.5-221.5,838.5,180.9"/>
	<path class="st35" d="M0.3,754.6c0,0,235.3-160,432.8-235.5c238.4-91.1,563.1-251.9,847.4,141.8"/>
	<path class="st36" d="M0.3,729c0,0,224.2-131.4,424-206.8C662,432.7,989,239.9,1280.5,624.9"/>
	<path class="st37" d="M0.2,704.3c0,0,213-102.9,415.2-178c236.9-88,566.2-312.7,865,63.5"/>
	<path class="st38" d="M0.2,680.5c0,0,201.9-74.4,406.5-149.3c236.1-86.5,567.8-343.2,873.8,24.4"/>
	<path class="st39" d="M0.2,657.4c0,0,190.8-45.9,397.7-120.6c235.3-85,569.4-373.6,882.6-14.8"/>
	<path class="st40" d="M0.2,635.1c0,0,179.7-17.4,388.9-91.9c234.5-83.5,571-404,891.5-53.9"/>
	<path class="st41" d="M0.2,613.2c0,0,168.5,11.1,380.1-63.1c233.7-82,572.5-434.5,900.3-93"/>
	<path class="st42" d="M0.1,587.2c0,0,157.4,39.5,371.3-34.4c232.9-80.5,574.1-464.9,909.1-132.2"/>
	<path class="st43" d="M0.1,557.6c0,0,146.3,68,362.5-5.7c232.1-79.1,575.7-495.3,917.9-171.3"/>
	<path class="st44" d="M0.1,526.7c0,0,135.1,96.4,353.7,23C585.1,472,931,23.9,1280.5,339.2"/>
	<path class="st45" d="M0.1,495.2c0,0,123.8,124.4,344.9,51.7c230.3-76.6,578.8-556.2,935.5-249.6"/>
	<path class="st46" d="M0,463.3c0,0,112.7,152.9,336.1,80.5C565.7,468.7,916.5-42.9,1280.5,255"/>
	<path class="st47" d="M0,431.4c0,0,101.6,181.4,327.3,109.2c228.8-73.5,581.9-617.1,953.2-327.9"/>
	<path class="st48" d="M0,399.6c0,0,90.5,209.9,318.5,137.9s583.5-647.5,962-367"/>
</g>
<polygon class="st1" points="110.2,852.9 42.2,852.9 8.2,911.8 42.2,970.7 110.2,970.7 144.2,911.8 "/>
<polygon class="st1" points="1222.3,833.8 1159.2,833.8 1127.7,888.4 1159.2,943 1222.3,943 1253.8,888.4 "/>
<polygon class="st1" points="1251.6,742.9 1224,742.9 1210.1,766.8 1224,790.8 1251.6,790.8 1265.5,766.8 "/>
<polygon class="st1" points="1121,702 1104.3,702 1096,716.4 1104.3,730.9 1121,730.9 1129.3,716.4 "/>
<polygon class="st1" points="217.2,695 127.7,695 83,772.5 127.7,850 217.2,850 262,772.5 "/>
<polygon class="st1" points="320.9,820 281.6,820 262,854 281.6,888 320.9,888 340.5,854 "/>
<polygon class="st1" points="73.5,508 49.8,508 38,528.5 49.8,549 73.5,549 85.3,528.5 "/>
<polygon class="st1" points="233,911.8 215,911.8 206,927.4 215,943 233,943 242,927.4 "/>
<polygon class="st2" points="460,425.5 302.3,425.5 223.5,562.1 302.3,698.6 460,698.6 538.9,562.1 "/>
<polygon class="st2" points="1203.4,866.5 1178.6,866.5 1166.2,888 1178.6,909.5 1203.4,909.5 1215.8,888 "/>
<polygon class="st2" points="193.7,735.5 150.3,735.5 128.7,773 150.3,810.5 193.7,810.5 215.3,773 "/>
</svg>
