<?xml version="1.0" standalone="no"?>
<!DOCTYPE svg PUBLIC "-//W3C//DTD SVG 20010904//EN"
 "http://www.w3.org/TR/2001/REC-SVG-20010904/DTD/svg10.dtd">
<svg version="1.0" xmlns="http://www.w3.org/2000/svg"
 width="700.000000pt" height="700.000000pt" viewBox="0 0 700.000000 700.000000"
 preserveAspectRatio="xMidYMid meet">
<metadata>
Created by potrace 1.11, written by Peter Selinger 2001-2013
</metadata>
<g transform="translate(0.000000,700.000000) scale(0.100000,-0.100000)"
fill="#000000" stroke="none">
<path d="M1892 6232 c-16 -26 -48 -78 -69 -117 -39 -69 -495 -859 -808 -1400
-89 -154 -173 -300 -187 -325 -14 -25 -134 -233 -267 -463 -133 -230 -247
-429 -253 -442 -11 -24 2 -51 117 -246 6 -10 28 -48 49 -86 177 -308 262 -456
291 -503 18 -30 43 -73 55 -95 20 -35 298 -517 758 -1315 74 -129 158 -273
185 -320 28 -47 61 -105 74 -128 14 -24 37 -65 52 -90 l27 -47 1625 -3 1624
-2 154 267 c84 148 161 279 170 293 8 14 22 36 29 50 13 25 76 134 351 608 78
134 141 245 141 248 0 3 8 17 19 32 18 26 228 390 279 482 13 25 37 65 52 90
15 25 92 158 170 295 79 138 150 261 159 275 9 14 21 34 27 45 6 11 25 45 42
75 l32 56 -231 399 c-127 220 -243 420 -257 445 -13 25 -55 97 -92 160 -37 63
-78 135 -92 160 -14 25 -132 229 -262 453 -130 224 -236 410 -236 412 0 3 -15
28 -33 57 -19 29 -47 78 -64 108 -17 30 -54 96 -83 145 -29 50 -58 99 -64 110
-6 11 -56 98 -110 192 l-100 172 -1622 0 -1622 0 -30 -47z m2982 -283 c4 -3
-21 -64 -55 -135 -34 -71 -74 -156 -89 -189 -15 -33 -47 -100 -70 -150 -80
-169 -132 -280 -157 -335 -14 -30 -54 -115 -89 -189 -35 -73 -64 -135 -64
-137 0 -2 -30 -65 -66 -141 -37 -76 -93 -194 -124 -263 -63 -137 -106 -227
-199 -424 -34 -70 -61 -130 -61 -131 0 -2 -33 -72 -73 -156 -41 -85 -82 -172
-91 -194 l-18 -40 -341 1 c-188 1 -344 2 -347 3 -3 0 -5 409 -5 909 1 499 -3
927 -7 952 -17 94 -64 118 -218 113 -147 -6 -618 -6 -789 0 -85 3 -167 1 -183
-4 -15 -4 -27 -5 -25 -1 77 137 293 500 303 508 14 11 2757 14 2768 3z m185
-101 c7 -12 25 -42 38 -67 14 -25 38 -66 53 -91 27 -44 195 -335 240 -415 12
-22 50 -87 85 -145 34 -58 73 -125 87 -150 47 -84 65 -115 127 -218 33 -57 61
-105 61 -107 0 -2 34 -61 76 -131 42 -71 89 -151 104 -179 15 -27 74 -129 130
-225 56 -96 115 -197 130 -225 16 -27 78 -135 139 -239 70 -120 107 -194 103
-205 -3 -9 -15 -29 -26 -46 -12 -16 -22 -32 -23 -34 -2 -2 -180 -5 -397 -5
-362 -1 -395 0 -399 16 -3 9 -5 98 -4 197 0 193 -5 215 -55 243 -33 18 -1153
18 -1186 0 -54 -31 -53 -18 -55 -584 l-2 -523 -44 0 -43 0 -167 332 -167 333
44 92 c24 51 53 113 64 138 11 25 43 92 70 150 28 58 64 134 80 170 17 36 62
130 99 209 38 79 69 145 69 146 0 2 36 79 80 171 44 91 80 168 80 170 0 2 26
58 59 126 63 132 110 233 174 368 60 129 106 227 204 435 49 105 102 218 118
253 15 34 31 62 34 62 3 0 12 -10 20 -22z m-3335 -1155 c-3 -329 -6 -693 -7
-808 l-2 -210 -455 1 c-250 1 -459 2 -464 3 -5 0 -4 7 2 14 9 10 364 622 532
917 30 52 58 97 62 98 5 2 8 8 8 13 0 6 23 49 51 97 29 48 61 103 71 122 57
102 202 350 205 350 2 0 1 -269 -3 -597z m1983 -1392 c9 -1 220 -410 289 -563
l13 -28 -492 0 -493 0 1 293 c0 226 3 293 12 297 11 4 629 5 670 1z"/>
</g>
</svg>
